<?xml version="1.0" encoding="utf-8"?>
<!-- Generator: Adobe Illustrator 26.0.3, SVG Export Plug-In . SVG Version: 6.00 Build 0)  -->
<svg version="1.1" id="Layer_1" xmlns="http://www.w3.org/2000/svg" xmlns:xlink="http://www.w3.org/1999/xlink" x="0px" y="0px"
	 viewBox="0 0 1351 501.9" style="enable-background:new 0 0 1351 501.9;" xml:space="preserve">
<style type="text/css">
	.st0{fill:#FFFFFF;}
	.st1{fill:#62AD57;}
</style>
<g id="Layer_1_00000134212905354672976850000007100359601053577141_">
</g>
<g id="Layer_2_00000091708779354983252190000010439898838207243952_">
	<g>
		<g>
			<path class="st0" d="M120.1,71.5c13,0,25.2,5.2,34.4,14.8c19.5,20.1,19.5,52.8,0,72.9c-9.2,9.5-21.4,14.8-34.4,14.8
				s-25.2-5.2-34.4-14.8c-19.5-20.1-19.5-52.8,0-72.9C94.9,76.7,107.1,71.5,120.1,71.5 M120.1,51.5c-17.7,0-35.3,7-48.8,20.9
				c-26.9,27.8-26.9,72.9,0,100.7c13.5,13.9,31.1,20.9,48.8,20.9s35.3-7,48.8-20.9c26.9-27.8,26.9-72.9,0-100.7
				C155.4,58.5,137.8,51.5,120.1,51.5L120.1,51.5z"/>
		</g>
		<g>
			<path class="st0" d="M367.2,326.7c13,0,25.2,5.2,34.4,14.8c19.5,20.1,19.5,52.8,0,72.9c-9.2,9.5-21.4,14.8-34.4,14.8
				s-25.2-5.2-34.4-14.8c-19.5-20.1-19.5-52.8,0-72.9C342,331.9,354.2,326.7,367.2,326.7 M367.2,306.7c-17.7,0-35.3,7-48.8,20.9
				c-26.9,27.8-26.9,72.9,0,100.7c13.5,13.9,31.1,20.9,48.8,20.9s35.3-7,48.8-20.9c26.9-27.8,26.9-72.9,0-100.7
				C402.5,313.6,384.8,306.7,367.2,306.7L367.2,306.7z"/>
		</g>
		<g>
			<path class="st0" d="M368.1,74.7c13,0,25.2,5.2,34.4,14.8c19.5,20.1,19.5,52.8,0,72.9c-9.2,9.5-21.4,14.8-34.4,14.8
				s-25.2-5.2-34.4-14.8c-19.5-20.1-19.5-52.8,0-72.9C342.9,79.9,355.1,74.7,368.1,74.7 M368.1,54.7c-17.7,0-35.3,7-48.8,20.9
				c-26.9,27.8-26.9,72.9,0,100.7c13.5,13.9,31.1,20.9,48.8,20.9s35.3-7,48.8-20.9c26.9-27.8,26.9-72.9,0-100.7
				C403.4,61.6,385.8,54.7,368.1,54.7L368.1,54.7z"/>
		</g>
		<g>
			<path class="st0" d="M121.6,329.2c13,0,25.2,5.2,34.4,14.8c19.5,20.1,19.5,52.8,0,72.9c-9.2,9.5-21.4,14.8-34.4,14.8
				s-25.2-5.2-34.4-14.8c-19.5-20.1-19.5-52.8,0-72.9C96.4,334.5,108.7,329.2,121.6,329.2 M121.6,309.2c-17.7,0-35.3,7-48.8,20.9
				c-26.9,27.8-26.9,72.9,0,100.7c13.5,13.9,31.1,20.9,48.8,20.9s35.3-7,48.8-20.9c26.9-27.8,26.9-72.9,0-100.7
				C156.9,316.2,139.3,309.2,121.6,309.2L121.6,309.2z"/>
		</g>
		<ellipse class="st0" cx="242.3" cy="50.9" rx="49.3" ry="50.9"/>
		<ellipse class="st0" cx="49.3" cy="250.3" rx="49.3" ry="50.9"/>
		<ellipse class="st0" cx="243" cy="451" rx="49.3" ry="50.9"/>
		<ellipse class="st0" cx="436.1" cy="250.3" rx="49.3" ry="50.9"/>
		<g>
			<path class="st0" d="M243.1,227c5.7,0,11.1,2.3,15.2,6.5c8.7,9,8.7,23.7,0,32.7c-4.1,4.2-9.5,6.5-15.2,6.5s-11.1-2.3-15.2-6.5
				c-8.7-9-8.7-23.7,0-32.7C232,229.3,237.4,227,243.1,227 M243.1,212c-9.4,0-18.8,3.7-26,11.1c-14.3,14.8-14.3,38.8,0,53.6
				c7.2,7.4,16.6,11.1,26,11.1s18.8-3.7,26-11.1c14.3-14.8,14.3-38.8,0-53.6C261.9,215.7,252.5,212,243.1,212L243.1,212z"/>
		</g>
		<ellipse class="st0" cx="292.2" cy="199.1" rx="32.9" ry="34"/>
		<ellipse class="st0" cx="291.1" cy="301.2" rx="32.9" ry="34"/>
		<ellipse class="st0" cx="194" cy="301.1" rx="32.9" ry="34"/>
		<ellipse class="st0" cx="192.6" cy="200.5" rx="32.9" ry="34"/>
	</g>
	<g>
		<g>
			<path class="st0" d="M618.3,317.6h-66.5v-7.8c18.2-1.7,20-3.1,20-21.3v-58.2c0-18.5-1.2-19.3-17.9-21.3v-7
				c14.2-2.2,27.2-5.6,40.8-11.5c0,9.2,0,21.5,0,30.8c10.1-14.5,22.3-29.9,36.7-29.9c10.7,0,16.8,6.4,16.8,13.4
				c0,6.4-4.6,12.6-9.8,15.4c-2.9,1.7-5.2,1.4-7.5-0.6c-4.3-4.2-7.8-7-13-7c-6.1,0-16.8,8.7-23.1,22.9v52.6
				c0,18.5,1.4,19.9,23.7,21.5L618.3,317.6L618.3,317.6z"/>
			<path class="st0" d="M765.6,293.8c-18.5,22.4-38.8,27.1-48,27.1c-35.3,0-56.7-28-56.7-60.1c0-19,6.9-36.6,18.8-49
				c12.2-13.1,28.1-20.4,43.1-20.4c25.2,0,44.3,21,44.3,43.4c-0.3,5.6-1.2,8.1-5.8,9.2c-5.8,1.1-42.8,3.6-77.2,4.8
				c-0.9,37.5,22.8,52.9,43.4,52.9c11.9,0,22.8-4.8,33.6-14.3L765.6,293.8z M715.8,202.1c-13.3,0-26.3,12-30.4,34.7
				c16.2,0,32.4,0,49.5-0.8c5.2,0,6.9-1.4,6.9-5.6C742.1,215.5,732,202.1,715.8,202.1z"/>
			<path class="st0" d="M780,317.6v-7.8c18.5-1.7,20.8-3.1,20.8-21.5v-134c0-17.1-1.4-18.7-20-21V126c15.6-1.7,33.6-6.1,42.8-9.5
				c0,13.1,0,26.6,0,39.7v132c0,18.5,1.7,19.9,20.5,21.5v7.8L780,317.6L780,317.6z"/>
			<path class="st0" d="M952.4,321c-4.3,0-10.7-2.2-13.6-5.3c-3.8-3.6-5.5-7.5-6.9-12.6c-11.6,7.5-25.8,17.9-34.7,17.9
				c-20.5,0-35.3-16.5-35.3-34.4c0-13.7,7.8-22.7,23.7-28c17.7-5.9,39.3-13.2,45.7-18.2v-5.6c0-19.9-10.4-31.3-25.5-31.3
				c-6.7,0-10.7,3.1-13.6,6.4c-3.2,3.9-5.2,10.1-7.8,18.2c-1.4,4.5-4.1,6.4-8.4,6.4c-5.5,0-12.7-5.6-12.7-12.3
				c0-3.9,3.8-7.3,9.6-11.2c8.4-5.9,25.2-16.2,41.7-19.6c8.7,0,17.7,2.5,24.3,7.5c10.1,8.4,14.8,17.9,14.8,32.5v54
				c0,12.9,4.9,16.8,10.1,16.8c3.5,0,7.2-1.4,10.4-3.1l2.9,7.8L952.4,321z M931.3,250.2c-6.4,3.1-20.2,9-26.9,11.8
				c-11,4.8-17.7,10.1-17.7,20.4c0,14.8,11.6,21.5,20.8,21.5c7.5,0,17.9-4.5,23.7-10.1C931.3,280.7,931.3,263.3,931.3,250.2z"/>
			<path class="st0" d="M1130,310.6c-6.1,1.1-27.8,4.5-44.8,10.3c0-5.9,0-12.3,0-18.2c-5.2,3.1-12.7,7-17.9,10.1
				c-11.6,6.4-19.4,8.1-22.8,8.1c-23.1,0-53.8-22.4-53.8-61.5c0-38.9,35.3-68,74.9-68c4.1,0,13.6,0.6,19.7,3.1v-41.1
				c0-17.9-2-18.5-22.6-20.1V126c14.5-2,34.7-5.9,45.4-9.5c0,10.4,0,22.7,0,34.1v134.5c0,14.5,2,16.5,12.7,17.1l9.3,0.6L1130,310.6
				L1130,310.6z M1085.2,216.6c-6.7-9.8-19.1-14.3-30.4-14.3c-13.9,0-38.5,9-38.5,49.2c0,33.8,21.7,51.8,40.2,52
				c10.4,0,21.7-5,28.6-10.1L1085.2,216.6L1085.2,216.6z"/>
			<path class="st0" d="M1143.6,317.6v-7.8c18.2-1.7,20.2-3.1,20.2-22.1V230c0-17.3-0.9-18.5-18.2-21.3v-6.7
				c15-2.5,28.6-6.1,41.1-11.2c0,11.8,0,23.5,0,35.2v61.5c0,19,2,20.4,20.8,22.1v7.8H1143.6z M1173.7,163.5c-8.1,0-15.3-7-15.3-14.8
				c0-9,7.2-15.4,15.6-15.4c8.1,0,14.8,6.4,14.8,15.4C1188.7,156.5,1182.1,163.5,1173.7,163.5z"/>
			<path class="st0" d="M1288,191.4c36.2,0,63.1,26.6,63.1,62.7c0,45.3-34.7,66.8-63.1,66.8c-39.9,0-64.2-31-64.2-62.4
				C1223.7,213,1260.5,191.4,1288,191.4z M1284.5,201c-17.7,0-33.6,16.5-33.6,49c0,35.5,16.2,61.3,39.9,61.3c17.9,0,33-12.6,33-50.9
				C1323.8,227.5,1310,201,1284.5,201z"/>
		</g>
	</g>
	<circle class="st1" cx="1167.9" cy="143.8" r="27.3"/>
</g>
</svg>
